<?xml version="1.0" standalone="no"?>
<!DOCTYPE svg PUBLIC "-//W3C//DTD SVG 20010904//EN"
 "http://www.w3.org/TR/2001/REC-SVG-20010904/DTD/svg10.dtd">
<svg version="1.0" xmlns="http://www.w3.org/2000/svg"
 width="1000.000000pt" height="1000.000000pt" viewBox="0 0 1000.000000 1000.000000"
 preserveAspectRatio="xMidYMid meet">
<metadata>
Created by potrace 1.14, written by Peter Selinger 2001-2017
</metadata>
<g transform="translate(0.000000,1000.000000) scale(0.100000,-0.100000)"
fill="#000000" stroke="none">
<path d="M1260 9964 c-268 -38 -468 -135 -678 -328 -46 -43 -155 -178 -176
-217 -7 -13 -24 -42 -37 -64 -59 -94 -120 -275 -139 -415 -8 -63 -10 -1076 -8
-4000 4 -3586 6 -3920 21 -3975 9 -33 20 -76 25 -95 45 -164 160 -361 289
-496 202 -210 497 -349 774 -364 128 -7 7296 -4 7363 3 38 4 79 10 90 12 12 3
32 7 46 9 14 2 63 16 109 31 439 140 768 531 824 980 9 72 12 1035 11 3967 -1
2130 -4 3887 -7 3905 -30 171 -57 265 -112 378 -35 72 -116 201 -154 245 -181
206 -384 335 -631 401 -135 36 -149 36 -3877 36 -2789 -1 -3668 -4 -3733 -13z
m7435 -423 c86 -15 94 -17 155 -41 192 -75 347 -221 430 -404 16 -34 36 -89
46 -121 18 -58 19 -220 22 -3945 2 -2789 0 -3903 -8 -3950 -45 -263 -219 -482
-470 -588 -152 -65 132 -61 -3875 -61 -3533 0 -3653 1 -3736 19 -234 51 -420
194 -528 407 -39 77 -70 172 -78 243 -4 30 -7 1792 -7 3915 0 3710 1 3863 18
3935 84 342 387 591 731 599 44 1 80 3 81 4 1 1 1613 1 3581 0 2442 -1 3597
-5 3638 -12z"/>
<path d="M5160 8207 c-3 -3 -45 -8 -94 -12 -50 -4 -97 -8 -106 -10 -10 -2 -41
-6 -70 -10 -29 -4 -62 -9 -74 -11 -12 -2 -37 -6 -56 -9 -44 -6 -268 -60 -335
-81 -179 -56 -396 -148 -550 -232 -70 -38 -272 -162 -300 -184 -5 -5 -53 -40
-105 -79 -229 -172 -489 -428 -652 -644 -54 -72 -158 -223 -158 -230 0 -2 -17
-30 -37 -62 -40 -63 -162 -311 -188 -383 -73 -202 -114 -337 -130 -429 -3 -19
-8 -37 -10 -41 -4 -7 -34 -178 -40 -230 -22 -194 -27 -268 -27 -455 0 -164 3
-251 17 -390 16 -165 56 -360 119 -588 54 -196 205 -527 333 -730 363 -574
924 -1058 1502 -1294 157 -64 400 -137 516 -156 17 -3 73 -12 125 -21 52 -9
133 -19 180 -23 154 -14 662 -6 757 11 10 2 52 7 93 11 41 4 84 9 95 11 11 3
47 9 80 14 108 17 128 21 260 55 135 35 268 76 320 100 17 7 55 23 85 35 127
51 388 201 479 276 287 235 402 387 447 589 19 86 19 2047 -1 2180 -39 274
-124 383 -345 444 -40 11 -104 24 -144 28 -87 10 -1677 11 -1762 1 -80 -9
-107 -15 -184 -44 -195 -72 -242 -220 -228 -719 0 -24 15 -130 22 -164 20 -91
69 -170 136 -216 48 -33 149 -63 245 -71 39 -4 233 -7 433 -7 l362 0 0 -454
c0 -423 -1 -454 -17 -459 -10 -4 -31 -12 -48 -19 -32 -14 -197 -63 -236 -70
-13 -3 -47 -9 -75 -15 -194 -40 -559 -48 -719 -16 -304 61 -564 196 -799 416
-387 361 -568 773 -568 1295 0 88 2 174 5 190 3 17 8 55 12 85 29 235 152 523
308 715 143 176 374 360 580 460 84 40 327 130 327 120 0 -3 11 0 25 5 14 5
47 12 73 15 27 3 59 8 73 11 45 10 354 13 409 4 30 -5 75 -11 100 -14 73 -10
209 -46 288 -77 105 -42 160 -71 307 -162 150 -93 307 -170 383 -187 95 -22
213 6 322 77 74 48 240 217 322 327 216 290 266 521 152 702 -59 94 -144 166
-359 306 -439 285 -841 435 -1355 503 -56 7 -514 18 -520 12z"/>
</g>
</svg>
