<?xml version="1.0" standalone="no"?>
<!DOCTYPE svg PUBLIC "-//W3C//DTD SVG 20010904//EN"
 "http://www.w3.org/TR/2001/REC-SVG-20010904/DTD/svg10.dtd">
<svg version="1.0" xmlns="http://www.w3.org/2000/svg"
 width="2000.000000pt" height="2000.000000pt" viewBox="0 0 2000.000000 2000.000000"
 preserveAspectRatio="xMidYMid meet">
<metadata>
Created by potrace 1.11, written by Peter Selinger 2001-2013
</metadata>
<g transform="translate(0.000000,2000.000000) scale(0.100000,-0.100000)"
fill="#000000" stroke="none">
<path d="M10947 18194 c-1 -1 -105 -4 -232 -8 -126 -4 -252 -9 -280 -11 -94
-7 -210 -17 -246 -20 -52 -4 -160 -16 -189 -20 -14 -2 -50 -6 -80 -10 -30 -4
-107 -15 -170 -25 -63 -10 -131 -21 -150 -24 -19 -3 -93 -17 -165 -32 -71 -14
-141 -28 -154 -30 -14 -3 -28 -7 -31 -9 -4 -2 -22 -7 -41 -10 -83 -14 -391
-100 -579 -161 -346 -112 -624 -226 -950 -389 -117 -58 -159 -80 -300 -158
-242 -134 -639 -401 -826 -556 -17 -14 -42 -35 -55 -45 -306 -245 -723 -668
-959 -976 -14 -18 -34 -44 -46 -59 -165 -208 -426 -598 -552 -823 -10 -18 -34
-60 -52 -93 -18 -33 -42 -76 -53 -95 -39 -69 -215 -426 -247 -500 -18 -41 -41
-95 -52 -119 -154 -344 -379 -1044 -463 -1441 -17 -82 -58 -280 -61 -300 -2
-14 -9 -45 -14 -70 -10 -50 -46 -262 -54 -325 -2 -22 -9 -69 -15 -105 -6 -36
-13 -91 -16 -123 -4 -32 -8 -66 -10 -75 -1 -9 -6 -48 -10 -87 -4 -38 -8 -81
-10 -95 -2 -14 -7 -61 -10 -105 -4 -44 -8 -91 -10 -105 -3 -22 -8 -92 -20
-275 -27 -417 -27 -1265 0 -1705 20 -321 26 -414 30 -445 2 -16 6 -66 10 -110
3 -44 8 -91 10 -105 2 -14 7 -56 10 -95 4 -38 8 -81 11 -95 2 -14 6 -52 10
-85 3 -33 9 -85 14 -115 5 -30 12 -76 15 -102 6 -54 10 -86 32 -218 8 -52 17
-108 19 -125 3 -16 19 -102 35 -190 17 -88 33 -170 35 -183 15 -79 60 -277 90
-397 20 -77 37 -147 39 -155 1 -8 26 -94 53 -190 106 -367 224 -693 383 -1060
43 -100 226 -463 278 -553 28 -49 51 -93 51 -98 0 -5 4 -9 8 -9 4 0 13 -12 19
-27 7 -16 18 -37 25 -48 7 -10 55 -85 107 -165 51 -80 121 -183 154 -230 60
-83 225 -300 237 -310 3 -3 28 -32 56 -65 615 -744 1485 -1335 2444 -1658 215
-72 532 -163 670 -191 110 -22 331 -66 355 -70 48 -8 168 -27 190 -31 53 -7
194 -26 225 -30 19 -2 58 -7 85 -10 28 -3 74 -8 103 -10 63 -5 172 -14 227
-20 248 -26 1092 -26 1410 -1 22 2 83 7 135 11 52 4 111 8 130 10 94 8 187 18
200 20 8 2 44 6 80 10 36 3 77 8 91 11 14 2 43 6 65 9 21 2 57 7 79 11 22 3
51 7 65 9 14 2 66 11 115 19 50 8 106 17 125 20 19 3 46 8 60 11 14 3 41 8 60
11 19 4 40 7 45 9 6 1 28 5 50 10 80 15 312 67 390 87 44 11 87 21 95 23 8 2
58 15 110 30 52 14 120 33 150 41 254 68 898 295 1105 389 17 7 104 46 195 85
253 111 704 335 870 434 25 15 59 33 75 41 17 8 111 63 210 123 l180 109 3
3836 c2 3649 1 3837 -15 3838 -23 1 -5692 1 -5716 0 -10 -1 -16 -4 -14 -8 3
-5 7 -32 11 -61 7 -58 12 -97 26 -192 5 -36 12 -85 15 -110 4 -25 8 -56 10
-70 2 -14 11 -77 19 -140 9 -63 18 -128 21 -145 2 -16 9 -66 15 -110 12 -88
18 -128 25 -177 6 -40 32 -228 55 -398 6 -47 13 -96 15 -110 4 -27 20 -145 30
-220 4 -25 8 -56 11 -70 2 -14 7 -47 10 -75 3 -27 9 -72 14 -100 5 -27 12 -75
15 -105 3 -30 8 -66 10 -80 3 -14 7 -45 10 -70 7 -54 33 -242 41 -287 l5 -33
968 0 968 0 0 -1764 0 -1764 -91 -45 c-152 -75 -237 -113 -326 -147 -47 -17
-94 -36 -105 -40 -83 -36 -455 -138 -561 -154 -21 -4 -46 -8 -54 -11 -20 -6
-66 -14 -120 -21 -25 -3 -56 -7 -70 -10 -28 -4 -93 -13 -155 -19 -224 -24
-685 -24 -825 -1 -14 3 -51 7 -82 11 -78 8 -173 25 -268 46 -25 6 -54 13 -66
15 -11 2 -67 18 -124 34 -721 215 -1233 708 -1555 1500 -14 36 -32 79 -40 95
-17 39 -122 352 -141 425 -56 204 -104 401 -120 490 -3 14 -14 70 -24 125 -30
154 -36 192 -65 395 -21 146 -24 168 -30 225 -3 28 -8 66 -10 85 -7 54 -13
109 -20 170 -3 30 -8 80 -11 110 -3 30 -7 80 -9 110 -7 115 -16 227 -20 275
-3 28 -7 102 -10 165 -3 63 -8 151 -10 195 -23 438 -23 1385 0 1710 2 28 6 97
10 155 9 140 14 205 20 265 7 70 14 136 20 198 3 28 8 63 10 77 2 14 7 52 10
85 3 33 8 74 11 90 3 17 7 44 9 60 5 43 32 219 41 265 3 14 7 36 9 50 8 51 56
286 66 325 6 22 13 51 15 65 8 43 63 251 94 355 17 55 32 107 34 116 12 47
122 351 150 414 8 17 28 64 46 105 33 77 161 329 207 410 38 66 185 288 222
335 17 22 41 53 54 69 115 152 302 351 452 482 420 366 915 600 1470 694 234
39 310 45 625 45 309 0 429 -9 660 -52 47 -8 94 -17 105 -19 182 -33 481 -129
675 -216 97 -44 306 -151 329 -169 13 -11 27 -19 32 -19 19 0 321 -197 479
-314 83 -61 336 -260 350 -275 3 -4 34 -31 70 -61 36 -30 67 -57 70 -60 33
-35 39 -34 86 16 26 27 144 150 263 272 119 123 248 257 286 297 39 40 167
173 287 296 119 123 249 258 288 299 40 41 179 185 309 319 318 329 350 362
396 410 l40 41 -27 23 c-14 13 -53 47 -85 77 -202 187 -513 437 -708 571 -27
19 -52 36 -55 39 -20 22 -492 320 -506 320 -3 0 -18 8 -32 18 -55 38 -348 189
-536 277 -173 80 -404 171 -586 230 -47 16 -94 32 -105 37 -23 9 -63 21 -301
83 -94 24 -184 46 -200 49 -16 3 -72 14 -124 25 -108 23 -304 57 -376 66 -27
4 -61 8 -75 11 -15 2 -47 6 -70 9 -24 3 -60 7 -79 10 -131 16 -316 32 -455 40
-161 10 -632 24 -638 19z"/>
</g>
</svg>
