<svg width="181" height="40" viewBox="0 0 181 40" fill="none" xmlns="http://www.w3.org/2000/svg">
<g clip-path="url(#clip0)">
<path d="M29.2886 0.399414H25.9192C25.4208 0.399414 25.0149 0.804471 25.0149 1.30186V13.7097C23.9316 12.6971 22.7647 11.8869 21.5262 11.2853C19.646 10.371 17.5599 9.90931 15.3306 9.90931C11.3733 9.90931 7.94124 11.3657 5.12995 14.2398C2.32761 17.108 0.904053 20.6314 0.904053 24.7177C0.904053 28.7415 2.33656 32.2261 5.15979 35.0764C7.986 37.9327 11.4419 39.3802 15.4291 39.3802C17.6942 39.3802 19.8519 38.9394 21.8425 38.0667C23.8391 37.194 25.6954 35.8031 27.3636 33.9387C27.4024 33.897 27.4353 33.8523 27.4651 33.8017C28.9662 31.3028 29.8825 28.801 30.1869 26.3647C30.1898 26.329 30.1928 26.2903 30.1928 26.2545V1.30186C30.1928 0.804471 29.7899 0.399414 29.2886 0.399414ZM25.2567 24.5003C25.2567 27.3387 24.3494 29.6379 22.4842 31.5292C20.6219 33.4175 18.4105 34.3348 15.7156 34.3348C13.9787 34.3348 12.3641 33.903 10.9167 33.0541C9.46626 32.2023 8.2934 31.002 7.43091 29.4831C6.56544 27.9641 6.12971 26.3201 6.12971 24.5956C6.12971 22.9039 6.57439 21.2539 7.44583 19.6932C8.31429 18.1385 9.49909 16.9204 10.9614 16.0715C12.4268 15.2197 14.0115 14.7879 15.6678 14.7879C17.3629 14.7879 18.9954 15.2227 20.5174 16.0775C22.0305 16.9263 23.2094 18.0938 24.0211 19.5473C24.8418 21.0156 25.2567 22.6805 25.2567 24.5003Z" fill="white"/>
<path d="M39.4863 5.80507H56.2347C56.7331 5.80507 57.139 5.40002 57.139 4.90263V2.02256C57.139 1.52517 56.7331 1.12012 56.2347 1.12012H39.4863C38.9879 1.12012 38.582 1.52517 38.582 2.02256V4.90561C38.582 5.40299 38.9879 5.80507 39.4863 5.80507Z" fill="white"/>
<path d="M47.4754 9.90918C43.169 9.90918 39.5459 11.4966 36.6958 14.6269C34.1322 17.4742 32.8311 20.8785 32.8311 24.7414C32.8311 28.6252 34.2039 32.0682 36.9107 34.975C39.6355 37.8998 43.1899 39.38 47.4754 39.38C51.7431 39.38 55.2945 37.8968 58.0282 34.975C60.744 32.0682 62.1228 28.6252 62.1228 24.7414C62.1228 20.8636 60.8216 17.4534 58.2521 14.6001C55.405 11.4877 51.7819 9.90918 47.4754 9.90918ZM52.2147 33.1672C50.7971 33.9743 49.2004 34.3823 47.4754 34.3823C45.7803 34.3823 44.1986 33.9743 42.772 33.1672C41.3545 32.366 40.2114 31.1985 39.3758 29.6944C38.5342 28.1814 38.1075 26.5314 38.1075 24.789C38.1075 22.0609 39.0147 19.8003 40.8859 17.8763C42.7482 15.9612 44.9029 15.029 47.4784 15.029C50.054 15.029 52.2117 15.9612 54.0739 17.8763C55.9422 19.8003 56.8524 22.0609 56.8524 24.789C56.8524 26.5314 56.4286 28.1814 55.593 29.6974C54.7603 31.1985 53.6263 32.366 52.2147 33.1672Z" fill="white"/>
<path d="M78.8503 9.90931C76.6209 9.90931 74.5349 10.371 72.6547 11.2853C71.4162 11.8869 70.2493 12.6971 69.1659 13.7097V1.30186C69.1659 0.804471 68.7601 0.399414 68.2617 0.399414H64.8923C64.3939 0.399414 63.988 0.804471 63.988 1.30186V26.2545C63.988 26.2932 63.991 26.329 63.994 26.3647C64.2984 28.801 65.2116 31.3028 66.7158 33.8017C66.7456 33.8493 66.7784 33.897 66.8172 33.9387C68.4855 35.8061 70.3418 37.194 72.3384 38.0667C74.3289 38.9394 76.4867 39.3802 78.7518 39.3802C82.7389 39.3802 86.1949 37.9327 89.0211 35.0764C91.8443 32.2232 93.2768 28.7385 93.2768 24.7177C93.2768 20.6344 91.8533 17.108 89.0479 14.2398C86.2396 11.3657 82.8076 9.90931 78.8503 9.90931ZM88.0541 24.5956C88.0541 26.3171 87.6154 27.9611 86.7529 29.4831C85.8905 31.002 84.7176 32.2023 83.2672 33.0541C81.8198 33.903 80.2052 34.3348 78.4683 34.3348C75.7764 34.3348 73.5619 33.4175 71.6997 31.5292C69.8345 29.6379 68.9272 27.3387 68.9272 24.5003C68.9272 22.6805 69.342 21.0126 70.1597 19.5473C70.9715 18.0938 72.1503 16.9263 73.6634 16.0775C75.1884 15.2227 76.8179 14.7879 78.513 14.7879C80.1724 14.7879 81.7541 15.2197 83.2194 16.0715C84.6818 16.9204 85.8636 18.1415 86.735 19.6932C87.6095 21.2539 88.0541 22.9039 88.0541 24.5956Z" fill="white"/>
<path d="M121.193 14.5971C118.349 11.4847 114.723 9.90918 110.419 9.90918C106.113 9.90918 102.487 11.4966 99.6394 14.6269C97.0729 17.4742 95.7747 20.8785 95.7747 24.7414C95.7747 28.6252 97.1475 32.0682 99.8543 34.975C102.579 37.8998 106.133 39.38 110.419 39.38C110.443 39.38 110.47 39.38 110.494 39.3771C114.502 39.0405 117.599 37.7151 119.739 35.4248V38.5967C119.739 39.0941 120.145 39.4992 120.644 39.4992H124.228C124.649 39.4992 125.016 39.2073 125.108 38.7992C125.147 38.6295 125.18 38.4835 125.132 24.7414C125.135 20.8427 123.807 17.4295 121.193 14.5971ZM110.419 15.029C112.992 15.029 115.122 15.9582 116.931 17.8674C117.632 18.6119 118.193 19.4012 118.596 20.2203C119.16 22.0966 119.387 24.0862 119.268 26.1353C116.827 32.5685 112.893 35.112 107.253 33.8969C105.005 32.774 103.397 31.407 102.472 29.8314C101.523 28.2201 101.045 26.5225 101.045 24.7891C101.045 22.0609 101.952 19.8003 103.824 17.8763C105.686 15.9582 107.841 15.029 110.419 15.029Z" fill="white"/>
<path d="M148.33 12.1609C146.503 11.0827 144.489 10.5347 142.364 10.5347C139.69 10.4811 137.279 10.913 135.181 11.8065C135.151 11.8184 135.121 11.8333 135.094 11.8482C133.817 12.563 132.551 13.5816 131.307 14.9129C129.991 16.4736 129.167 18.8056 128.797 21.9984C128.627 23.014 128.567 24.253 128.615 25.6677L128.663 28.4704V38.4538C128.663 38.9512 129.069 39.3563 129.567 39.3563H132.984C133.483 39.3563 133.888 38.9512 133.888 38.4538V28.798C133.888 25.4057 134.035 23.0587 134.321 21.8227C134.342 21.7393 134.348 21.6529 134.342 21.5695C134.247 19.8272 134.858 18.4959 136.216 17.4922C137.673 16.417 139.293 15.8928 141.164 15.8928C143.31 15.8928 144.925 16.2144 145.96 16.8518C146.942 17.4534 147.587 18.481 147.939 20.0118C148.103 20.6641 148.297 22.2129 148.297 25.8941V38.4538C148.297 38.9512 148.703 39.3563 149.201 39.3563H152.571C153.069 39.3563 153.475 38.9512 153.475 38.4538V24.9083C153.475 21.1466 153.096 18.4363 152.32 16.6165C151.526 14.7551 150.183 13.2569 148.33 12.1609Z" fill="white"/>
<path d="M180.731 37.9233L169.319 22.2482L179.764 12.777C180.042 12.5268 180.134 12.1307 180 11.7852C179.866 11.4367 179.532 11.2074 179.156 11.2074H174.151C173.933 11.2074 173.721 11.2878 173.557 11.4308L162.855 20.7411V1.92686C162.855 1.42947 162.449 1.02441 161.951 1.02441H158.533C158.035 1.02441 157.629 1.42947 157.629 1.92686V38.4534C157.629 38.9508 158.035 39.3559 158.533 39.3559H161.951C162.449 39.3559 162.855 38.9508 162.855 38.4534V27.0404L164.625 25.5869L174.455 38.9865C174.625 39.2189 174.897 39.3559 175.183 39.3559H179.997C180.337 39.3559 180.648 39.1652 180.803 38.8644C180.961 38.5606 180.931 38.1973 180.731 37.9233Z" fill="white"/>
</g>
<defs>
<clipPath id="clip0">
<rect width="180" height="39.0999" fill="white" transform="translate(0.904053 0.399414)"/>
</clipPath>
</defs>
</svg>
