<?xml version="1.0" encoding="utf-8"?>
<!-- Generator: Adobe Illustrator 24.0.2, SVG Export Plug-In . SVG Version: 6.00 Build 0)  -->
<svg version="1.1" id="Layer_1" xmlns="http://www.w3.org/2000/svg" xmlns:xlink="http://www.w3.org/1999/xlink" x="0px" y="0px"
	 viewBox="0 0 500 193" style="enable-background:new 0 0 500 193;" xml:space="preserve">
<style type="text/css">
	.st0{fill:#345574;}
</style>
<g transform="translate(0.000000,193.000000) scale(0.100000,-0.100000)">
	<path class="st0" d="M65,1921c-11-5-29-19-40-31c-20-22-20-36-20-926V60l28-27L60,5h2440h2440l27,28l28,27v905v905l-28,27l-27,28
		l-2428,2C1177,1928,76,1925,65,1921z M3295,1520v-75l-81-5c-100-6-114-16-114-81v-49h100h101l-3-77l-3-78l-97-3l-98-3V887
		c0-191-3-266-12-275c-12-12-143-17-172-6c-14,5-16,39-16,275v269h-38c-51,0-62,14-62,76c0,77,5,84,56,84h44v68c0,89,13,132,52,169
		c48,45,79,52,218,50l125-2V1520z M3845,1520v-75l-81-5c-100-6-114-16-114-81v-48l98-3l97-3v-75v-75l-97-3l-98-3V885
		c0-305,7-285-104-285c-105,0-96-25-96,281v269h-45c-52,0-58,11-53,101l3,54l45,5l45,5l5,85c7,94,24,137,66,165c45,29,73,34,204,32
		l125-2V1520z M1186,1523c23-12,53-39,65-60c23-37,24-46,27-280c3-253-2-300-39-347c-46-58-60-61-361-66c-267-5-278-6-299-26
		c-14-14-23-39-26-70c-3-28-12-55-21-61c-16-13-157-18-186-7c-14,5-16,50-16,403c0,392,0,397,23,441c25,50,59,78,108,90
		c19,5,180,8,359,7C1135,1545,1146,1544,1186,1523z M1580,1254v-57l23,33c42,62,69,75,168,79l90,3l-3-78l-3-79l-75-6
		c-41-3-89-13-106-22c-57-30-64-61-64-296c0-243,6-231-104-231c-106,0-96-36-96,361v349h85h85V1254z M2616,1294c19-9,44-31,57-48
		c21-30,22-38,22-288c0-290,0-290-81-332c-36-20-56-21-279-21c-260,0-293,5-337,53c-42,45-48,81-48,302c0,216,6,256,44,299
		c42,47,64,50,334,51C2542,1310,2587,1307,2616,1294z M4152,1094c4-264-7-247,155-242c163,4,157-6,163,251l5,202l98,3l97,3V904
		c0-281-4-419-12-446c-14-49-74-103-129-118c-26-7-116-10-248-8c-175,3-211,6-239,21c-49,27-72,71-72,140v58l93-3c86-3,92-4,95-25
		c6-40,24-45,157-41c160,4,155-1,155,161v119l-35-30c-45-40-72-44-243-40c-157,3-177,11-217,79c-18,31-20,55-23,273
		c-2,131-1,244,2,252c4,11,28,14,100,14h95L4152,1094z"/>
	<path class="st0" d="M573,1355c-23-16-23-19-23-250V872l30,28c43,40,99,50,278,50c121,0,163,3,178,14c17,13,19,30,22,183
		c4,235,24,217-250,221C626,1370,592,1368,573,1355z"/>
	<path class="st0" d="M2170,1130c-18-18-20-33-20-168c0-202-9-192,175-192c117,0,146,3,159,16c24,23,24,325,0,348
		c-12,13-41,16-155,16C2203,1150,2188,1148,2170,1130z"/>
</g>
</svg>
