<?xml version="1.0" standalone="no"?>
<!DOCTYPE svg PUBLIC "-//W3C//DTD SVG 20010904//EN"
 "http://www.w3.org/TR/2001/REC-SVG-20010904/DTD/svg10.dtd">
<svg version="1.0" xmlns="http://www.w3.org/2000/svg"
 width="1256.000000pt" height="386.000000pt" viewBox="0 0 1256.000000 386.000000"
 preserveAspectRatio="xMidYMid meet">

<g transform="translate(0.000000,386.000000) scale(0.100000,-0.100000)"
fill="#000000" stroke="none">
<path d="M7234 3121 c-46 -12 -88 -39 -112 -75 -21 -30 -22 -43 -22 -207 -1
-328 31 -1514 41 -1568 22 -111 114 -171 261 -171 130 0 204 37 251 123 21 41
22 51 22 352 0 336 4 365 61 483 31 63 72 92 129 92 50 0 77 -18 100 -67 16
-33 21 -96 34 -468 12 -301 20 -437 29 -452 25 -45 67 -58 194 -58 129 0 150
8 196 75 21 32 22 41 22 269 0 356 -24 599 -76 753 -28 87 -147 171 -291 209
-98 25 -261 27 -363 3 -39 -9 -73 -14 -75 -12 -2 1 -7 141 -12 310 -9 349 -7
341 -97 387 -40 21 -64 25 -154 27 -59 2 -121 0 -138 -5z"/>
<path d="M4765 3034 c-11 -3 -46 -10 -78 -16 -69 -13 -120 -54 -134 -108 -10
-38 1 -1224 15 -1525 9 -196 15 -213 99 -255 37 -19 68 -25 139 -28 162 -7
249 25 292 108 l23 45 -7 521 -7 522 84 7 c90 8 171 33 213 66 36 28 51 88 33
131 -28 66 -86 93 -236 108 -52 6 -97 12 -99 15 -2 2 -8 64 -13 137 -11 151
-27 198 -84 237 -50 34 -162 50 -240 35z"/>
<path d="M2400 2959 c-49 -19 -102 -63 -125 -103 -24 -43 -36 -98 -60 -276 -8
-58 -23 -168 -34 -245 -46 -320 -63 -446 -76 -564 -8 -68 -17 -126 -19 -129
-7 -7 -10 4 -46 148 -84 339 -119 421 -195 463 -33 18 -107 26 -160 16 -41 -7
-58 -17 -92 -54 -47 -52 -56 -77 -144 -407 -29 -109 -55 -195 -59 -193 -4 3
-10 21 -13 42 -3 21 -31 187 -61 368 -31 182 -63 389 -71 460 -9 72 -22 151
-31 177 -17 54 -64 100 -133 132 -65 30 -212 28 -293 -3 -60 -23 -111 -72
-123 -119 -7 -30 316 -1330 350 -1407 29 -65 68 -111 119 -138 36 -19 57 -22
166 -22 119 0 127 1 173 28 26 15 60 47 75 69 15 23 65 156 113 302 47 144 90
261 94 261 9 0 31 -67 106 -330 60 -211 96 -286 157 -329 120 -86 302 -82 409
8 58 49 79 112 113 336 63 419 172 992 232 1224 37 146 35 187 -15 232 -25 23
-54 36 -105 48 -78 18 -213 20 -252 5z"/>
<path d="M3467 2404 c-104 -23 -170 -51 -252 -105 -130 -87 -210 -206 -240
-358 -23 -112 -16 -300 13 -383 74 -206 259 -358 523 -430 69 -19 109 -23 224
-23 91 0 153 5 177 13 32 12 41 11 60 -2 29 -20 198 -22 280 -2 114 27 138 58
145 193 9 154 -71 820 -104 871 -8 13 -31 30 -51 39 -20 8 -61 32 -91 53 -81
54 -169 96 -253 121 -98 28 -331 36 -431 13z m280 -251 c40 -20 78 -42 85 -50
11 -13 57 -415 58 -508 0 -24 -11 -64 -28 -100 -72 -150 -148 -177 -242 -83
-155 156 -166 495 -23 731 40 66 34 66 150 10z"/>
<path d="M6203 2411 c-316 -51 -569 -270 -613 -532 -14 -83 -8 -207 16 -308
51 -220 216 -387 444 -448 91 -25 349 -25 438 0 209 57 450 216 467 310 15 78
-47 117 -200 125 -191 9 -309 -29 -345 -113 -22 -52 -43 -65 -107 -65 -61 0
-104 26 -137 82 -78 134 -72 346 15 525 36 73 59 93 105 93 43 0 87 -45 104
-105 16 -59 41 -90 93 -118 36 -19 58 -22 157 -22 185 0 260 42 260 148 0 134
-198 330 -408 403 -77 27 -206 38 -289 25z"/>
<path d="M9130 2414 c-131 -16 -262 -67 -341 -131 -194 -159 -251 -460 -143
-750 52 -138 134 -245 249 -322 108 -72 207 -101 365 -108 402 -18 739 126
740 315 0 69 -51 104 -170 116 -140 14 -284 -24 -377 -100 -130 -107 -233 -91
-283 43 -38 101 -39 99 108 106 127 6 213 23 319 65 86 33 136 67 200 136 74
78 104 148 111 259 4 72 2 82 -27 142 -20 40 -48 77 -75 99 -56 47 -157 93
-242 112 -67 15 -361 27 -434 18z m302 -211 c71 -35 89 -163 34 -242 -54 -77
-176 -137 -318 -156 l-48 -6 0 39 c0 65 30 203 56 257 13 28 37 64 53 79 53
51 155 64 223 29z"/>
<path d="M10690 2384 c-223 -28 -370 -107 -437 -236 -22 -44 -27 -69 -31 -149
-5 -109 4 -147 49 -209 39 -53 105 -95 199 -124 96 -31 186 -44 383 -56 215
-13 277 -39 277 -117 0 -73 -74 -108 -225 -108 -116 1 -163 14 -222 62 -57 47
-117 63 -235 63 -146 0 -199 -31 -214 -125 -17 -114 77 -202 272 -256 113 -31
421 -38 583 -15 280 41 456 169 501 362 14 62 1 149 -30 200 -73 117 -269 183
-610 204 -201 13 -263 23 -307 50 -65 39 -51 118 26 153 37 17 66 21 151 21
122 0 165 -12 235 -64 65 -49 107 -60 233 -60 156 0 198 27 209 132 7 66 -8
98 -67 152 -48 43 -104 69 -210 98 -62 17 -111 21 -285 23 -115 2 -226 1 -245
-1z"/>
</g>
</svg>
